<svg width="29" height="29" viewBox="0 0 29 29" fill="none" xmlns="http://www.w3.org/2000/svg">
<g clip-path="url(#clip0_957_235)">
<path d="M26.5063 28.4245C26.4122 28.5203 26.2786 28.5752 26.1381 28.5752H20.3691C5.64083 23.0068 14.3696 8.97412 14.3696 8.97412H23.1125L25.1643 14.9266L24.7366 19.1956L27.9474 23.0306C28.4834 24.9534 27.9291 26.9788 26.5063 28.4245Z" fill="#EAAA83"/>
<path d="M20.3692 28.5752H10.4117L8.71908 23.4639L7.16638 18.7747V8.97412H14.3696C13.8207 14.8785 13.9386 24.9379 20.3692 28.5752Z" fill="#DF8A57"/>
<path d="M27.9474 23.0305H15.7677C9.48946 20.2185 14.1991 14.9265 14.1991 14.9265H25.1643L27.85 22.7172C27.8857 22.8209 27.9185 22.9251 27.9474 23.0305Z" fill="#FBF198"/>
<path d="M15.7677 23.0305H12.0012L8.71908 23.4638L7.16638 18.7746V15.3531L9.21815 14.9265H14.1991C14.3158 17.6575 14.7452 20.534 15.7677 23.0305Z" fill="#F4E74D"/>
<path d="M2.42978 22.7172L7.16674 8.97388L11.9037 22.7172C12.1016 23.2914 12.2022 23.8908 12.2022 24.4939C12.2022 25.9486 11.6165 27.3509 10.5601 28.4245L10.4117 28.5752H4.14115C4.00106 28.5752 3.8676 28.5205 3.77317 28.4245C2.251 26.8775 1.7469 24.6963 2.42978 22.7172Z" fill="#C76D33"/>
<path d="M9.59518 9.38165H23.2438C24.0683 9.38165 24.7367 8.71327 24.7367 7.88882C24.7367 7.06438 24.0683 6.396 23.2438 6.396H9.59518C8.77074 6.396 8.10236 7.06438 8.10236 7.88882C8.10236 8.71327 8.77068 9.38165 9.59518 9.38165Z" fill="#DF8A57"/>
<path d="M8.05703 1.27808H13.9432C17.2531 1.27808 20.4781 3.45163 21.7509 6.39616H17.1314C16.9109 6.39616 16.6968 6.42329 16.4923 6.47433C16.0288 6.59 15.9028 7.18826 16.2836 7.47676L17.6819 8.53623C18.4373 9.10854 18.5594 10.1938 17.9533 10.9178C17.3864 11.5959 16.386 11.7124 15.6776 11.1828L14.6569 10.4196C13.756 9.74605 12.6613 9.38203 11.5364 9.38203H8.45696L7.47696 8.38108L6.95184 4.8072L8.05703 1.27808Z" fill="#FFDDCF"/>
<path d="M0.851501 2.12422V8.10884C0.851501 9.04742 1.61233 9.80825 2.55092 9.80825C3.97475 9.80825 5.43936 9.74096 6.80824 9.14288C7.11844 9.00658 7.40933 8.84355 7.67585 8.65662V1.57644C7.40933 1.38951 7.11844 1.22648 6.80824 1.09018C5.98856 0.731946 4.76628 0.424805 2.96756 0.424805C1.49043 0.424805 0.851501 1.16881 0.851501 2.12422Z" fill="#36D49B"/>
<path d="M5.9552 5.32984C5.9552 7.3057 6.60268 9.27753 7.89758 9.73167C8.42298 9.90348 8.67619 9.7805 10.1595 9.42073C8.47782 9.42073 7.63694 7.37531 7.63694 5.32984C7.63694 3.28436 8.47782 1.23889 10.1595 1.23889L8.79311 0.9075C8.49934 0.826155 8.1871 0.833292 7.89758 0.92795C6.60268 1.38203 5.9552 3.35393 5.9552 5.32984Z" fill="#80E0B7"/>
<path d="M23.5817 20.8979C24.5463 20.8979 25.3283 20.2752 25.3283 19.5069C25.3283 18.7387 24.5463 18.116 23.5817 18.116C22.617 18.116 21.835 18.7387 21.835 19.5069C21.835 20.2752 22.617 20.8979 23.5817 20.8979Z" fill="#FFA1AC"/>
<path d="M14.1142 20.8979C15.0789 20.8979 15.8609 20.2752 15.8609 19.5069C15.8609 18.7387 15.0789 18.116 14.1142 18.116C13.1496 18.116 12.3676 18.7387 12.3676 19.5069C12.3676 20.2752 13.1496 20.8979 14.1142 20.8979Z" fill="#FFA1AC"/>
<path d="M21.7593 28.5751H26.1382C26.2787 28.5751 26.4123 28.5201 26.5064 28.4244C27.929 26.9789 28.4836 24.9535 27.9475 23.0304L23.2531 9.38184" stroke="black" stroke-width="0.849709" stroke-miterlimit="10" stroke-linecap="round" stroke-linejoin="round"/>
<path d="M10.4117 28.5752H19.988" stroke="black" stroke-width="0.849709" stroke-miterlimit="10" stroke-linecap="round" stroke-linejoin="round"/>
<path d="M7.09444 9.18311L2.42954 22.7173C1.74802 24.6917 2.2481 26.8748 3.77322 28.4245C3.86725 28.5202 4.00094 28.5752 4.14086 28.5752H10.4117L10.5601 28.4245C11.7062 27.26 12.316 25.6913 12.1842 24.0473V24.0468C12.1553 23.7035 12.0941 23.3636 12.0012 23.0305L7.3097 9.38987" stroke="black" stroke-width="0.849709" stroke-miterlimit="10" stroke-linecap="round" stroke-linejoin="round"/>
<path d="M11.5362 9.38184H9.59491" stroke="black" stroke-width="0.849709" stroke-miterlimit="10" stroke-linecap="round" stroke-linejoin="round"/>
<path d="M17.1312 6.396H23.2435C24.0679 6.396 24.7367 7.06426 24.7367 7.88865C24.7367 8.71332 24.0681 9.38187 23.2435 9.38187H18.2693" stroke="black" stroke-width="0.849709" stroke-miterlimit="10" stroke-linecap="round" stroke-linejoin="round"/>
<path d="M9.59491 9.38179H11.5362C12.6612 9.38179 13.7557 9.74603 14.6569 10.4196L15.6777 11.1826C16.3871 11.7134 17.387 11.5941 17.9532 10.9175C18.5486 10.2158 18.4462 9.13441 17.7045 8.55361L16.2833 7.47674C15.9026 7.18784 16.0289 6.58965 16.4923 6.47409C16.6968 6.4231 16.9109 6.39591 17.1313 6.39591H21.7508C20.478 3.45139 17.2531 1.27783 13.9432 1.27783H9.76768" stroke="black" stroke-width="0.849709" stroke-miterlimit="10" stroke-linecap="round" stroke-linejoin="round"/>
<path d="M7.67566 6.08726V4.57251" stroke="black" stroke-width="0.849709" stroke-miterlimit="10" stroke-linecap="round" stroke-linejoin="round"/>
<path d="M7.25875 1.31417C7.19179 1.31417 6.01342 0.424805 2.96715 0.424805H2.5508C1.61215 0.424805 0.851379 1.18558 0.851379 2.12422V8.10901C0.851379 9.04765 1.61215 9.80842 2.5508 9.80842H2.96715C4.29327 9.80842 5.80003 9.63656 6.98798 9.05955" stroke="black" stroke-width="0.849709" stroke-miterlimit="10" stroke-linecap="round" stroke-linejoin="round"/>
<path d="M6.98797 9.05946C7.45111 9.62905 8.08539 9.94831 8.79275 9.75169C9.51874 9.57795 9.32869 9.62514 10.2406 9.38178C9.95107 9.38178 9.89233 9.42891 9.59601 9.33703C8.88644 9.11973 8.40188 8.49418 8.10448 7.80812C8.10448 7.80812 8.10392 7.80812 8.10448 7.80756C7.08245 5.45839 7.73106 1.23874 10.1591 1.23874L8.79275 0.907353C8.49931 0.82578 8.18719 0.833145 7.89715 0.927745C5.6512 1.71628 5.36015 7.05143 6.98797 9.05946Z" stroke="black" stroke-width="0.849709" stroke-miterlimit="10" stroke-linecap="round" stroke-linejoin="round"/>
<path d="M22.5636 17.4709V18.1507" stroke="black" stroke-width="0.849709" stroke-miterlimit="10" stroke-linecap="round" stroke-linejoin="round"/>
<path d="M19.8274 18.1465C19.3088 18.7416 18.3867 18.7416 17.8681 18.1465" stroke="black" stroke-width="0.849709" stroke-miterlimit="10" stroke-linecap="round" stroke-linejoin="round"/>
<path d="M15.7885 18.1317C15.7885 17.6967 15.4359 17.344 15.0008 17.344C14.5658 17.344 14.2131 17.6967 14.2131 18.1317" stroke="black" stroke-width="0.849709" stroke-miterlimit="10" stroke-linecap="round" stroke-linejoin="round"/>
<path d="M9.21826 14.9265H23.465" stroke="black" stroke-width="0.849709" stroke-miterlimit="10" stroke-linecap="round" stroke-linejoin="round"/>
<path d="M12.0013 23.0305H27.9475" stroke="black" stroke-width="0.849709" stroke-miterlimit="10" stroke-linecap="round" stroke-linejoin="round"/>
</g>
<defs>
<clipPath id="clip0_957_235">
<rect width="29" height="29" fill="white"/>
</clipPath>
</defs>
</svg>
