<svg width="32" height="32" viewBox="0 0 32 32" fill="none" xmlns="http://www.w3.org/2000/svg">
<path fill-rule="evenodd" clip-rule="evenodd" d="M20.4949 25.834H13.8497C13.6436 25.834 13.4762 25.6664 13.4762 25.4605V24.1364C13.4762 22.6129 12.2368 21.3735 10.7129 21.3735H4.71822C3.98893 21.3735 3.2995 21.6585 2.77689 22.1759C2.6641 22.2877 2.49294 22.316 2.3503 22.2462C2.20767 22.1766 2.12437 22.0247 2.14304 21.8667C2.40339 19.6584 3.59573 18.1125 5.59109 17.3955C5.63153 17.381 5.67432 17.3734 5.71741 17.3734L15.1971 17.3735C15.2931 17.3735 15.4349 17.4013 15.5667 17.5335C15.9199 17.8881 16.1529 19.0233 16.1417 23.3899H19.6222C19.7394 22.3901 20.3201 21.7557 20.884 21.1402C21.5202 20.4454 22.1779 19.7275 22.3032 18.3784L21.8854 14.5972C21.873 14.4835 21.9132 14.3702 21.9946 14.29C22.0761 14.2099 22.1912 14.1713 22.3033 14.1855L24.8816 14.5097C25.0129 14.5261 25.1254 14.6109 25.1781 14.732C25.841 16.2664 27.3506 20.0897 27.0556 22.4538C27.0429 22.5565 26.9879 22.6497 26.9038 22.7103C26.82 22.771 26.715 22.7933 26.6128 22.7741C26.355 22.7233 26.0904 22.6976 25.8274 22.6976L24.7583 22.6977C22.9915 22.6977 21.387 23.8788 20.8564 25.5699C20.8246 25.6711 20.7513 25.7541 20.6547 25.7981C20.6063 25.8199 20.5481 25.834 20.4949 25.834ZM14.2232 25.0867H20.2337C20.9381 23.2271 22.7604 21.9503 24.7585 21.9503H25.8277C26.0001 21.9503 26.1729 21.9595 26.3446 21.9783C26.4214 19.8688 25.2096 16.7157 24.5763 15.2237L22.68 14.9853L23.0502 18.3326C23.0527 18.3567 23.053 18.3813 23.051 18.4052C22.9127 20.0309 22.1276 20.8879 21.4351 21.6439C20.8276 22.3071 20.3484 22.8308 20.3484 23.7628C20.3484 23.9689 20.1808 24.1363 19.9749 24.1363L15.7677 24.1361C15.5616 24.1361 15.3943 23.9686 15.3943 23.7627L15.3947 23.4919C15.4087 19.4687 15.195 18.4001 15.0695 18.1197H5.78374C4.37098 18.6449 3.45877 19.6261 3.06219 21.0425C3.56663 20.7702 4.13203 20.6257 4.71846 20.6257H10.7132C12.6486 20.6257 14.2235 22.2003 14.2235 24.136L14.2232 25.0867Z" fill="black"/>
<path fill-rule="evenodd" clip-rule="evenodd" d="M15.3947 23.4919C15.4088 19.4686 15.195 18.4 15.0695 18.1197H5.78375C4.37099 18.6449 3.45878 19.6261 3.06219 21.0424C3.56664 20.7702 4.13204 20.6256 4.71847 20.6256H10.7132C12.6486 20.6256 14.2235 22.2003 14.2235 24.1359L14.2232 25.0867H20.2337C20.9381 23.227 22.7604 21.9502 24.7585 21.9502H25.8277C26.0002 21.9502 26.173 21.9595 26.3446 21.9782C26.4214 19.8688 25.2096 16.7157 24.5763 15.2237L22.6801 14.9852L23.0502 18.3325C23.0528 18.3567 23.0531 18.3813 23.051 18.4052C22.9128 20.0309 22.1277 20.8879 21.4351 21.6439C20.8276 22.3071 20.3484 22.8307 20.3484 23.7627C20.3484 23.9689 20.1808 24.1362 19.9749 24.1362L15.7677 24.1361C15.5616 24.1361 15.3943 23.9686 15.3943 23.7627L15.3947 23.4919Z" fill="#F54144"/>
<path fill-rule="evenodd" clip-rule="evenodd" d="M26.0267 15.4032C25.9948 15.4032 25.9626 15.3991 25.9309 15.3908L22.539 14.4919C22.3395 14.4389 22.2209 14.2345 22.2739 14.0351C22.3266 13.8357 22.5299 13.7163 22.7307 13.7698L25.6535 14.5445V11.7659L22.4142 12.5663C22.2132 12.6158 22.0112 12.4936 21.9619 12.2932C21.9126 12.0929 22.0348 11.8907 22.235 11.8411L25.9374 10.9263C26.0492 10.8991 26.167 10.924 26.2572 10.9949C26.3474 11.0657 26.4006 11.174 26.4006 11.289V15.0295C26.4006 15.1454 26.3467 15.2548 26.2546 15.3254C26.1885 15.3766 26.1084 15.4032 26.0267 15.4032Z" fill="black"/>
<path fill-rule="evenodd" clip-rule="evenodd" d="M27.8856 15.5984H26.0267C25.8205 15.5984 25.6532 15.431 25.6532 15.2249V10.4382C25.6532 10.2321 25.8207 10.0648 26.0267 10.0648H27.8856C28.0917 10.0648 28.259 10.2321 28.259 10.4382V15.2249C28.2593 15.431 28.0917 15.5984 27.8856 15.5984ZM26.4004 14.8514H27.5121V10.8117H26.4004V14.8514Z" fill="black"/>
<path fill-rule="evenodd" clip-rule="evenodd" d="M12.9437 27.6464H2.4877C1.78217 27.6464 1.20795 27.0721 1.20795 26.3666V24.1357C1.20795 22.2001 2.78261 20.6255 4.71821 20.6255L10.7129 20.6256C12.6483 20.6256 14.2232 22.2002 14.2232 24.1359V26.3667C14.2232 27.0721 13.6492 27.6464 12.9437 27.6464ZM4.7182 21.3731C3.19449 21.3731 1.95494 22.6126 1.95494 24.1361V26.3669C1.95494 26.6605 2.19382 26.8994 2.4877 26.8994H12.9434C13.237 26.8994 13.4759 26.6605 13.4759 26.3669V24.1361C13.4759 22.6126 12.2364 21.3731 10.7126 21.3731H4.7182Z" fill="black"/>
<path fill-rule="evenodd" clip-rule="evenodd" d="M3.41054 25.8177C3.20445 25.8177 3.03711 25.6502 3.03711 25.4442V24.1363C3.03711 23.209 3.79132 22.4548 4.71823 22.4548H7.09327C7.29943 22.4548 7.46677 22.6223 7.46677 22.8283C7.46677 23.0343 7.29943 23.2018 7.09327 23.2018H4.71823C4.21173 23.2018 3.78374 23.6295 3.78374 24.1363V25.4442C3.78404 25.6502 3.6167 25.8177 3.41054 25.8177Z" fill="black"/>
<path fill-rule="evenodd" clip-rule="evenodd" d="M30.2887 27.298H20.2978C20.0916 27.298 19.9243 27.1305 19.9243 26.9246V26.785C19.9243 24.1195 22.093 21.9505 24.759 21.9505L25.8279 21.9504C28.4936 21.9504 30.6627 24.1192 30.6627 26.7849V26.9244C30.6622 27.1304 30.4949 27.298 30.2887 27.298ZM20.6777 26.5508H29.9084C29.7868 24.4056 28.0029 22.6976 25.8276 22.6976H24.7587C22.5832 22.6974 20.7993 24.4053 20.6777 26.5508Z" fill="black"/>
<path fill-rule="evenodd" clip-rule="evenodd" d="M22.7464 25.4693C22.6616 25.4693 22.5762 25.4405 22.5059 25.3814C22.3482 25.2485 22.3277 25.0128 22.4608 24.8552C23.0366 24.1715 23.8739 23.7793 24.7585 23.7793C24.9646 23.7793 25.132 23.9469 25.132 24.1528C25.132 24.3587 24.9645 24.5263 24.7585 24.5263C24.0948 24.5263 23.4656 24.8214 23.0321 25.3363C22.9583 25.424 22.8527 25.4693 22.7464 25.4693Z" fill="black"/>
<path fill-rule="evenodd" clip-rule="evenodd" d="M7.71571 31.2248C5.53661 31.2248 3.76373 29.4517 3.76373 27.2728C3.76373 27.0666 3.93107 26.8993 4.13723 26.8993H11.2941C11.5003 26.8993 11.6676 27.0669 11.6676 27.2728C11.6676 29.4517 9.89489 31.2248 7.71571 31.2248ZM4.53257 27.6463C4.71807 29.2382 6.07503 30.4775 7.71571 30.4775C9.3564 30.4775 10.7135 29.2382 10.8989 27.6463H4.53257Z" fill="black"/>
<path fill-rule="evenodd" clip-rule="evenodd" d="M7.71569 29.645C6.4077 29.645 5.34351 28.5805 5.34351 27.2728C5.34351 27.0666 5.51085 26.8993 5.71701 26.8993H9.71405C9.92021 26.8993 10.0876 27.0669 10.0876 27.2728C10.0878 28.5808 9.02368 29.645 7.71569 29.645ZM6.13382 27.6463C6.30293 28.3629 6.94795 28.8977 7.71569 28.8977C8.48342 28.8977 9.12816 28.3626 9.29755 27.6463H6.13382Z" fill="black"/>
<path fill-rule="evenodd" clip-rule="evenodd" d="M25.2931 31.2247C23.1142 31.2247 21.3411 29.4517 21.3411 27.2727C21.3411 27.1454 21.3474 27.016 21.3599 26.8881C21.3785 26.6969 21.5393 26.5507 21.7318 26.5507H28.8547C29.0469 26.5507 29.2077 26.6968 29.2266 26.8881C29.239 27.0178 29.2455 27.1472 29.2455 27.2727C29.2453 29.4517 27.4723 31.2247 25.2931 31.2247ZM22.0884 27.2979C22.102 29.0538 23.5344 30.4777 25.2931 30.4777C27.0521 30.4777 28.4849 29.0538 28.4982 27.2979H22.0884Z" fill="black"/>
<path fill-rule="evenodd" clip-rule="evenodd" d="M25.2931 29.645C23.9851 29.645 22.921 28.5806 22.921 27.2729C22.921 27.134 22.9331 26.9949 22.9572 26.8591C22.9886 26.6808 23.144 26.5508 23.325 26.5508H27.2614C27.443 26.5508 27.598 26.6816 27.6294 26.8602C27.6532 26.9966 27.6655 27.1359 27.6655 27.2729C27.6655 28.5808 26.6011 29.645 25.2931 29.645ZM23.6683 27.298C23.6818 28.1824 24.4053 28.898 25.2931 28.898C26.181 28.898 26.9048 28.1824 26.9183 27.298H23.6683Z" fill="black"/>
<path fill-rule="evenodd" clip-rule="evenodd" d="M15.3026 18.1201H5.40484C4.57101 18.1201 3.89246 17.4416 3.89246 16.6077C3.89246 15.774 4.57101 15.0957 5.40484 15.0957H15.3026C16.1365 15.0957 16.8147 15.774 16.8147 16.6077C16.8147 17.4416 16.1363 18.1201 15.3026 18.1201ZM5.40484 15.8426C4.98282 15.8426 4.63939 16.1858 4.63939 16.6077C4.63939 17.0297 4.98282 17.3729 5.40484 17.3729L15.3026 17.373C15.7244 17.373 16.0676 17.0299 16.0676 16.6079C16.0676 16.1858 15.7244 15.8428 15.3026 15.8428L5.40484 15.8426Z" fill="black"/>
<path fill-rule="evenodd" clip-rule="evenodd" d="M9.5116 15.8426H2.21591C2.00975 15.8426 1.84241 15.6753 1.84241 15.4691V7.74325C1.84241 7.53709 2.00975 7.36975 2.21591 7.36975H9.5116C9.71777 7.36975 9.88511 7.53709 9.88511 7.74325V15.4691C9.88511 15.6755 9.71777 15.8426 9.5116 15.8426ZM2.58911 15.0957H9.1381V8.11668H2.58911V15.0957Z" fill="black"/>
<path fill-rule="evenodd" clip-rule="evenodd" d="M3.88858 11.2765C3.8377 11.2765 3.78638 11.2662 3.73785 11.2447C3.6025 11.185 3.51508 11.0509 3.51508 10.903V7.74325C3.51508 7.53709 3.68242 7.36975 3.88858 7.36975H6.02622C6.23238 7.36975 6.39972 7.53709 6.39972 7.74325V10.9033C6.39972 11.0515 6.3123 11.1853 6.17687 11.245C6.04181 11.3052 5.8838 11.2787 5.7744 11.1791L4.95762 10.4332L4.1407 11.1791C4.07012 11.2431 3.98011 11.2765 3.88858 11.2765ZM4.26201 8.11668V10.0565L4.7055 9.65134C4.84814 9.52113 5.06621 9.52113 5.20914 9.65134L5.65241 10.0562V8.11639L4.26201 8.11668Z" fill="black"/>
<path fill-rule="evenodd" clip-rule="evenodd" d="M9.5113 14.2504H2.2156C2.00944 14.2504 1.8421 14.0831 1.8421 13.8769C1.8421 13.6708 2.00944 13.5034 2.2156 13.5034H9.5113C9.71746 13.5034 9.8848 13.6708 9.8848 13.8769C9.8848 14.0831 9.71775 14.2504 9.5113 14.2504Z" fill="black"/>
<path fill-rule="evenodd" clip-rule="evenodd" d="M27.964 14.3616C27.9291 14.3616 27.8941 14.3604 27.86 14.358C27.6642 14.3445 27.5119 14.1816 27.5119 13.9853V11.678C27.5119 11.4809 27.6653 11.3178 27.8618 11.3053C27.8956 11.3033 27.93 11.302 27.9642 11.302C28.8077 11.302 29.494 11.9883 29.494 12.8317C29.4939 13.6754 28.8075 14.3616 27.964 14.3616ZM28.2592 12.1065V13.5569C28.5451 13.4401 28.7468 13.159 28.7468 12.8317C28.7468 12.5044 28.5448 12.2232 28.2592 12.1065Z" fill="black"/>
<path fill-rule="evenodd" clip-rule="evenodd" d="M17.7503 9.59452C17.2752 9.59452 16.7181 9.51777 16.0802 9.36395C15.8797 9.31543 15.7562 9.1139 15.8047 8.9134C15.8533 8.71312 16.0532 8.58945 16.2555 8.63768C17.9971 9.0578 18.5963 8.76216 18.7986 8.54865C19.0745 8.25742 18.9371 7.78356 18.9357 7.77885C18.9005 7.66129 18.9249 7.53299 19.0013 7.43718C19.0779 7.34153 19.1969 7.28815 19.3183 7.29668C19.5597 7.313 19.6863 7.17625 19.7524 7.05523C18.8654 6.03516 19.1979 4.23434 19.2134 4.15338C19.2521 3.95134 19.4456 3.81804 19.6503 3.85716C19.8526 3.89561 19.9857 4.09111 19.9475 4.29367C19.8585 4.76341 19.7716 6.10691 20.4273 6.67592C20.5288 6.76385 20.5749 6.8995 20.5487 7.03126C20.4888 7.33116 20.2434 7.83531 19.7166 7.99508C19.727 8.3016 19.6658 8.7151 19.3484 9.05537C19.0123 9.41453 18.4775 9.59452 17.7503 9.59452Z" fill="black"/>
<path fill-rule="evenodd" clip-rule="evenodd" d="M19.9746 24.1366C19.7685 24.1366 19.6011 23.9692 19.6011 23.7632V18.975C19.6011 17.2479 18.1959 15.8426 16.4688 15.8426H14.3353C14.1291 15.8426 13.9619 15.6753 13.9619 15.4691C13.9619 15.263 14.1291 15.0957 14.3353 15.0957H16.4688C18.608 15.0957 20.3483 16.8361 20.3483 18.975V23.7632C20.3484 23.9693 20.1809 24.1366 19.9746 24.1366Z" fill="black"/>
<path fill-rule="evenodd" clip-rule="evenodd" d="M15.5328 15.8916C15.4516 15.8916 15.3696 15.8649 15.3011 15.8107C15.0067 15.5775 14.8283 15.254 14.7847 14.8751C14.6622 13.8096 15.6141 12.5784 15.7231 12.4414C15.7955 12.3503 15.9021 12.2977 16.0224 12.3006C16.1385 12.3029 16.2473 12.3589 16.3162 12.4525C17.2664 13.7431 18.4931 14.4045 19.9624 14.418C19.9774 14.418 19.9925 14.4183 20.0075 14.4183C21.4791 14.4183 22.6507 13.7584 22.8066 13.5545C22.8553 13.4534 22.8788 13.2332 22.7464 13.0093C22.5897 12.7447 22.0998 12.2924 20.5742 12.2338C18.0573 12.1371 15.8434 9.24625 15.3482 8.55342C13.9321 8.4038 12.7694 8.73341 11.8891 9.53254C9.78394 11.443 9.884 15.4167 9.8851 15.4564C9.89157 15.6626 9.72967 15.8349 9.52351 15.8416C9.31316 15.8398 9.14486 15.6863 9.13839 15.4801C9.13288 15.303 9.02921 11.1194 11.387 8.97943C12.4704 7.99635 13.8897 7.61027 15.6061 7.83172C15.7127 7.8454 15.8085 7.90451 15.8684 7.99384C15.8912 8.02781 18.1835 11.3946 20.6031 11.4874C22.3883 11.5562 23.1036 12.146 23.3892 12.6289C23.6745 13.1107 23.6146 13.6054 23.4635 13.9078C23.2261 14.3822 21.8779 15.0255 20.4949 15.144C19.2467 15.2511 17.4991 15.001 16.0365 13.2994C15.9268 13.4745 15.8031 13.6942 15.7037 13.9288C15.4419 14.5489 15.4625 14.9849 15.7652 15.2246C15.927 15.3528 15.9543 15.5878 15.8261 15.7494C15.7518 15.8431 15.6429 15.8916 15.5328 15.8916Z" fill="black"/>
<path fill-rule="evenodd" clip-rule="evenodd" d="M16.1677 9.37434C15.9615 9.37434 15.7942 9.207 15.7942 9.00091V8.49205C15.7034 8.56624 15.579 8.59602 15.4576 8.56227C11.9247 7.57455 11.7053 5.25723 11.775 4.30663C11.927 2.23435 13.7117 0.27347 15.6723 0.0250358C16.6277 -0.0960581 18.9975 0.0660621 20.3831 4.17075C20.4259 4.29729 20.3976 4.43713 20.3091 4.53749C20.2207 4.63785 20.0854 4.68277 19.9543 4.6563C19.9341 4.65219 17.9649 4.26155 17.0263 5.04172C16.6902 5.32111 16.5315 5.72152 16.5411 6.26567L16.5414 9.00127C16.5414 9.20728 16.3738 9.37434 16.1677 9.37434ZM16.1114 0.744031C15.9978 0.744031 15.8829 0.751236 15.7661 0.766088C14.1625 0.969381 12.6457 2.64926 12.52 4.36141C12.3994 6.0071 13.5139 7.24355 15.6585 7.84321C15.7096 7.85747 15.7556 7.88181 15.7942 7.9135V6.27215C15.7805 5.50346 16.0349 4.89365 16.5505 4.46596C17.3797 3.77785 18.6881 3.76749 19.4648 3.83667C18.6606 1.82395 17.4901 0.744031 16.1114 0.744031Z" fill="black"/>
<path fill-rule="evenodd" clip-rule="evenodd" d="M31.4972 31.2127H0.373501C0.16734 31.2127 0 31.0453 0 30.8392C0 30.6333 0.16734 30.4658 0.373501 30.4658H31.4972C31.7033 30.4658 31.8707 30.6333 31.8707 30.8392C31.8707 31.0453 31.7033 31.2127 31.4972 31.2127Z" fill="black"/>
<path fill-rule="evenodd" clip-rule="evenodd" d="M5.65244 10.0561V8.11633L4.26202 8.11663V10.0564L4.70552 9.65129C4.84816 9.52108 5.06623 9.52108 5.20916 9.65129L5.65244 10.0561Z" fill="#E3C5A2"/>
<path fill-rule="evenodd" clip-rule="evenodd" d="M9.1381 14.2504H2.58911V15.0957H5.40486H9.1381V14.2504Z" fill="#E3C5A2"/>
<path fill-rule="evenodd" clip-rule="evenodd" d="M2.58912 13.5033H9.13811V8.11658H6.39971V10.9032C6.39971 11.0514 6.31229 11.1852 6.17686 11.2449C6.04179 11.3051 5.88379 11.2786 5.77439 11.179L4.95761 10.4331L4.14069 11.179C4.0701 11.243 3.98011 11.2764 3.88857 11.2764C3.83769 11.2764 3.78637 11.2661 3.73785 11.2446C3.60249 11.1849 3.51507 11.0509 3.51507 10.9029V8.11658H2.58911L2.58912 13.5033Z" fill="#D9AF80"/>
<path fill-rule="evenodd" clip-rule="evenodd" d="M11.8892 9.5325C10.1584 11.1032 9.91821 14.0684 9.88812 15.0956H14.3352H14.8269C14.8075 15.0245 14.7934 14.9509 14.7847 14.875C14.6623 13.8095 15.6141 12.5783 15.7231 12.4414C15.7955 12.3503 15.9021 12.2977 16.0224 12.3005C16.1385 12.3029 16.2473 12.3588 16.3162 12.4525C17.2664 13.7431 18.4931 14.4045 19.9624 14.4179L20.0075 14.4182C21.0376 14.4182 21.9208 14.0949 22.4114 13.831C22.4378 13.8112 22.4669 13.795 22.4977 13.7828C22.6595 13.6893 22.7666 13.6068 22.8066 13.5545C22.8553 13.4533 22.8788 13.2332 22.7464 13.0093C22.6697 12.8798 22.5132 12.7053 22.1944 12.554C22.1769 12.5475 22.16 12.5397 22.1437 12.5308C21.811 12.3833 21.3145 12.2622 20.5742 12.2338C18.0573 12.137 15.8434 9.24621 15.3482 8.55338C13.9321 8.40376 12.7694 8.73337 11.8892 9.5325Z" fill="#FDDD57"/>
<path fill-rule="evenodd" clip-rule="evenodd" d="M16.5414 8.70251C18.0639 9.02454 18.6078 8.75008 18.7985 8.5487C19.0745 8.25747 18.9371 7.78361 18.9357 7.7789C18.9004 7.66134 18.9249 7.53304 19.0013 7.43723C19.0779 7.34158 19.1969 7.2882 19.3183 7.29673C19.5597 7.31305 19.6863 7.1763 19.7524 7.05528C19.1113 6.31805 19.1073 5.173 19.1601 4.56414C18.5002 4.52826 17.5823 4.5795 17.0262 5.04175C16.6902 5.32114 16.5314 5.72155 16.5411 6.2657L16.5414 8.70251Z" fill="#FFD4C5"/>
<path fill-rule="evenodd" clip-rule="evenodd" d="M15.7941 6.27213C15.7805 5.50343 16.0349 4.89363 16.5505 4.46594C17.3797 3.77783 18.6881 3.76746 19.4647 3.83665C18.6606 1.82392 17.4901 0.744019 16.1114 0.744019C15.9978 0.744019 15.8829 0.751224 15.7661 0.766076C14.1625 0.969369 12.6457 2.64925 12.52 4.3614C12.3998 6.00106 13.5057 7.23448 15.6349 7.83659C15.6936 7.84887 15.7482 7.87504 15.7941 7.91246L15.7941 6.27213Z" fill="#F54144"/>
<path fill-rule="evenodd" clip-rule="evenodd" d="M25.6534 11.7659L23.1993 12.3722C23.2776 12.4588 23.3398 12.5454 23.3892 12.6288C23.6745 13.1107 23.6145 13.6054 23.4634 13.9078C23.4554 13.9239 23.4461 13.9402 23.4355 13.9566L25.6534 14.5445L25.6534 11.7659Z" fill="#FF676E"/>
<path fill-rule="evenodd" clip-rule="evenodd" d="M26.4005 11.289L26.4003 14.8514H27.512V13.9959C27.512 13.9995 27.5119 13.9924 27.512 13.9959L27.5119 11.678C27.5118 11.6816 27.5119 11.6745 27.5119 11.678L27.512 10.8118H26.4003L26.4005 11.289C26.4005 11.2847 26.4007 11.2933 26.4005 11.289Z" fill="#F54144"/>
<path fill-rule="evenodd" clip-rule="evenodd" d="M28.2591 12.1064V13.5569C28.545 13.4401 28.7467 13.1589 28.7467 12.8317C28.7467 12.5044 28.5447 12.2231 28.2591 12.1064Z" fill="#FDD961"/>
<path fill-rule="evenodd" clip-rule="evenodd" d="M19.6012 23.3899V18.975C19.6012 17.2946 18.271 15.9189 16.6084 15.8457C16.7396 16.0696 16.8148 16.33 16.8148 16.6077C16.8148 17.2596 16.4002 17.8165 15.8209 18.0286C16.0267 18.7211 16.15 20.1853 16.1418 23.3898L19.6012 23.3899Z" fill="#1FBDFA"/>
<path fill-rule="evenodd" clip-rule="evenodd" d="M5.71742 17.3733L15.1971 17.3735L15.3027 17.373C15.7244 17.373 16.0676 17.0299 16.0676 16.6079C16.0676 16.279 15.8592 15.9981 15.5676 15.8901C15.556 15.8912 15.5444 15.8917 15.5328 15.8917C15.4707 15.8917 15.408 15.876 15.3513 15.8443C15.3352 15.8433 15.319 15.8428 15.3027 15.8428L14.3352 15.8427H9.51162H5.40486C4.98283 15.8427 4.6394 16.1858 4.6394 16.6077C4.6394 17.0298 4.98283 17.3729 5.40486 17.3729L5.71742 17.3733Z" fill="#5F5C84"/>
<path fill-rule="evenodd" clip-rule="evenodd" d="M10.7126 21.373H4.7182C3.94524 21.373 3.24544 21.692 2.7435 22.2052C2.25589 22.7036 1.95496 23.3853 1.95496 24.136V26.3669C1.95496 26.6605 2.19383 26.8993 2.48771 26.8993H4.13722H5.71703H9.71407H11.2941H12.9434C13.237 26.8993 13.4759 26.6605 13.4759 26.3669L13.4762 25.4604L13.4759 24.136C13.4759 22.6125 12.2365 21.373 10.7126 21.373ZM3.7837 25.4443C3.784 25.6502 3.61665 25.8178 3.41049 25.8178C3.20441 25.8178 3.03706 25.6502 3.03706 25.4443V24.1363C3.03706 23.2091 3.79127 22.4549 4.71819 22.4549H7.09323C7.29939 22.4549 7.46673 22.6224 7.46673 22.8283C7.46673 23.0343 7.29939 23.2018 7.09323 23.2018H4.71819C4.21168 23.2018 3.7837 23.6295 3.7837 24.1363L3.7837 25.4443Z" fill="#FF676E"/>
<path fill-rule="evenodd" clip-rule="evenodd" d="M10.0584 27.6464C9.87889 28.7775 8.89668 29.645 7.71574 29.645C6.5348 29.645 5.55266 28.7774 5.37297 27.6464H4.53259C4.70765 29.1487 5.92602 30.337 7.44157 30.4659H7.98991C9.50546 30.337 10.724 29.1487 10.8989 27.6464H10.0584Z" fill="#7DA0B1"/>
<path fill-rule="evenodd" clip-rule="evenodd" d="M7.71571 28.8976C8.48344 28.8976 9.12818 28.3626 9.29758 27.6462H6.13385C6.30296 28.3628 6.94797 28.8976 7.71571 28.8976Z" fill="#CBE5E8"/>
<path fill-rule="evenodd" clip-rule="evenodd" d="M23.668 27.298C23.6815 28.1824 24.405 28.898 25.2928 28.898C26.1807 28.898 26.9045 28.1824 26.918 27.298H23.668Z" fill="#CBE5E8"/>
<path fill-rule="evenodd" clip-rule="evenodd" d="M25.2931 29.645C23.9935 29.645 22.9346 28.5941 22.9211 27.298H22.0884C22.1012 28.9605 23.3861 30.3255 25.0156 30.4659H25.5707C27.2005 30.3255 28.4857 28.9605 28.4982 27.298H27.6654C27.6518 28.5944 26.5927 29.645 25.2931 29.645Z" fill="#7DA0B1"/>
<path fill-rule="evenodd" clip-rule="evenodd" d="M23.3252 26.5508H27.2615H28.8548H29.9086C29.8024 24.6776 28.4287 23.1378 26.6337 22.7774C26.6268 22.7765 26.6198 22.7754 26.6129 22.7741C26.412 22.7345 26.207 22.7101 26.0018 22.7013C26.0073 22.7015 25.9964 22.7011 26.0018 22.7013C25.9494 22.6993 25.8805 22.6976 25.8277 22.6976H24.7584C22.9917 22.6976 21.3871 23.8787 20.8565 25.5698C20.8541 25.5776 20.8514 25.5854 20.8484 25.593C20.7551 25.8987 20.6966 26.2196 20.6779 26.5508H21.7319H23.3252ZM23.0322 25.3363C22.9584 25.4239 22.8528 25.4693 22.7465 25.4693C22.6617 25.4693 22.5763 25.4404 22.506 25.3813C22.3483 25.2485 22.3278 25.0128 22.461 24.8551C23.0367 24.1715 23.874 23.7792 24.7586 23.7792C24.9647 23.7792 25.1321 23.9468 25.1321 24.1527C25.1321 24.3587 24.9646 24.5262 24.7586 24.5262C24.0949 24.5262 23.4657 24.8214 23.0322 25.3363Z" fill="#FF676E"/>
</svg>
